Coordinates
version=1
nRows=17
nColumns=36
inDegrees=yes

Units are S.I. units (second, meters, Newtons, ...)
If the header above contains a line with 'inDegrees', this indicates whether rotational values are in degrees (yes) or radians (no).

endheader
time	pelvis_tilt	pelvis_list	pelvis_rotation	pelvis_tx	pelvis_ty	pelvis_tz	hip_flexion_r	hip_adduction_r	hip_rotation_r	knee_angle_r	knee_angle_r_beta	ankle_angle_r	subtalar_angle_r	mtp_angle_r	hip_flexion_l	hip_adduction_l	hip_rotation_l	knee_angle_l	knee_angle_l_beta	ankle_angle_l	subtalar_angle_l	mtp_angle_l	lumbar_extension	lumbar_bending	lumbar_rotation	arm_flex_r	arm_add_r	arm_rot_r	elbow_flex_r	pro_sup_r	arm_flex_l	arm_add_l	arm_rot_l	elbow_flex_l	pro_sup_l
      2.42916670	    -31.58505051	     -3.49500159	     -0.90759161	      0.14279840	      0.61206174	     -0.03653672	    102.37695024	    -16.35778139	     -1.87969561	    114.14612091	      1.99222564	     41.50057298	      6.35894636	     -7.49999987	    108.82550062	    -15.54365956	      7.30768318	    115.26302090	      2.01171922	     36.40151474	     10.74925606	     -7.49999987	    -34.54123321	      2.74571300	      1.38740560	     95.78131364	    -10.50877257	     26.07495059	    109.52906950	     98.84019402	     99.69757938	     -4.34935721	     34.15182644	    106.46657647	     95.65512284
      2.43333330	    -31.60076253	     -3.34818747	     -0.82078179	      0.14220673	      0.62021930	     -0.03281821	    101.76954264	    -15.83652228	     -2.01456656	    113.32634849	      1.97791791	     41.49881615	      5.69156056	     -7.49999987	    107.98446626	    -15.59980129	      7.08514157	    114.23745009	      1.99381963	     36.07272097	     10.45433174	     -7.49999987	    -34.45218838	      2.18701360	      1.04767587	     94.60303659	    -10.18882165	     25.06392698	    108.79537984	     99.46280464	     99.44067649	     -4.49974237	     34.34887546	    105.00239916	     95.95290617
      2.43750000	    -31.69403845	     -3.22656470	     -0.84719821	      0.14130712	      0.62365616	     -0.03347493	    101.38819821	    -15.39022264	     -2.14544017	    112.60707502	      1.96536422	     41.35087215	      5.36866900	     -7.49999987	    107.43910710	    -15.69487099	      6.87957443	    113.41530346	      1.97947047	     36.03345100	     10.12608125	     -7.49999987	    -34.36937460	      1.89129851	      0.94265101	     94.14460077	    -10.18672837	     24.96151131	    108.14425124	     98.71593341	     99.16125229	     -4.76967928	     34.13535945	    104.04226255	     95.03959970
      2.44166670	    -31.84110835	     -3.11140305	     -0.82297769	      0.14268817	      0.62884968	     -0.03403017	    100.94060265	    -15.01630872	     -2.19778666	    111.79577479	      1.95120436	     41.34105610	      5.05202790	     -7.49999987	    106.96854309	    -15.60970282	      6.56407129	    112.70622452	      1.96709471	     35.82334195	      9.75073061	     -7.49999987	    -34.19506752	      1.68230508	      0.92264856	     93.36767439	    -10.37467778	     24.69346017	    107.56003845	     97.94851791	     98.59650620	     -4.83036551	     33.99480360	    103.37289557	     94.06388611
      2.44583330	    -31.64365383	     -2.97078645	     -0.72974056	      0.14389006	      0.63488799	     -0.03284606	    100.19405607	    -14.86523351	     -2.23694131	    111.13011841	      1.93958646	     41.20607772	      4.37157990	     -7.49999987	    106.10235517	    -15.44114172	      6.19035886	    111.91353371	      1.95325964	     35.43392534	      9.00841044	     -7.49999987	    -34.22691901	      1.56071848	      0.84287213	     92.71899019	    -10.35787809	     24.64879019	    106.24574782	     96.71517115	     98.00069770	     -4.78146112	     33.94137911	    102.16418482	     92.79879361
      2.45000000	    -31.88750733	     -2.90352557	     -0.86714633	      0.14253600	      0.64086281	     -0.03316407	     99.77013056	    -14.53217109	     -2.44527396	    110.21654409	      1.92364158	     40.76721793	      3.78472126	     -7.49999987	    105.65918954	    -15.48181179	      5.94636747	    111.09444761	      1.93896389	     35.54935851	      9.01499478	     -7.49999987	    -34.11851741	      1.28682379	      1.00378578	     91.63138311	    -10.64585559	     24.53212427	    106.56347572	     96.18150300	     97.28475468	     -4.69772117	     34.43276427	    102.29260316	     91.93207133
      2.45416670	    -31.85500121	     -2.85960880	     -0.90451269	      0.14456442	      0.64754324	     -0.03162426	     99.01301405	    -14.24820659	     -2.61353238	    109.33056213	      1.90817828	     40.59235536	      3.38820658	     -7.49999987	    104.86544519	    -15.47955222	      5.72817076	    110.19633854	      1.92328893	     35.45099206	      8.83036529	     -7.49999987	    -34.15384801	      1.07933022	      0.98199918	     90.49357920	    -10.72333058	     24.44066652	    106.13838863	     95.53678371	     96.36569901	     -4.68064409	     34.52482551	    101.46725518	     91.00985097
      2.45833330	    -31.74297789	     -2.83486723	     -0.88511513	      0.14345585	      0.65099957	     -0.03401201	     98.31892838	    -14.09766167	     -2.66179934	    108.46930780	      1.89314656	     40.38548421	      3.04310682	     -7.49999987	    104.16248842	    -15.30514072	      5.45650578	    109.52480705	      1.91156850	     35.24993715	      8.28021039	     -7.49999987	    -34.29883747	      1.00725428	      0.81404245	     89.73604305	    -10.77634487	     24.43976720	    105.23695390	     94.76520818	     95.82424737	     -4.58121011	     34.42043662	    100.48311737	     90.15079462
      2.46250000	    -31.69605377	     -2.91531627	     -0.85113385	      0.14221074	      0.65695547	     -0.03248631	     97.71997134	    -13.86154870	     -2.83523357	    107.60838627	      1.87812064	     39.99027843	      2.72947532	     -7.49999987	    103.54240457	    -15.14800248	      5.38002890	    108.70472717	      1.89725540	     34.93980249	      8.02297367	     -7.49999987	    -34.35888132	      0.95619302	      0.87426827	     88.52015620	    -11.13787849	     23.75245696	    105.05574447	     94.48747357	     95.12351008	     -4.31202496	     33.96082998	     99.41264442	     89.38123321
      2.46666670	    -31.45866821	     -2.88718401	     -0.70527605	      0.14240392	      0.66266786	     -0.03049896	     97.03580078	    -13.69366184	     -2.89377582	    106.91484141	      1.86601600	     39.76712772	      2.30641713	     -7.49999987	    102.66970394	    -14.93690177	      5.24501159	    107.87465504	      1.88276791	     34.53648513	      7.48605028	     -7.49999987	    -34.54945073	      0.89989768	      0.69998294	     87.66184431	    -11.18316916	     23.68671638	    103.60280576	     93.28258043	     94.53985835	     -4.32016415	     33.83750408	     97.99858333	     88.08938423
      2.47083330	    -31.59801728	     -2.96780312	     -0.69801023	      0.14420527	      0.66971805	     -0.03021737	     96.37931244	    -13.26412123	     -3.15903723	    105.83836464	      1.84722794	     39.25348987	      1.74363952	     -7.49999987	    102.05995907	    -14.96743580	      5.18951238	    106.83095728	      1.86455195	     34.33784680	      7.59421277	     -7.49999987	    -34.41938852	      0.47622308	      1.15933288	     85.46510286	    -12.05109484	     21.94355738	    104.34255183	     96.28722434	     93.97878163	     -3.46532439	     33.93909474	     96.18706202	     89.01966871
      2.47500000	    -31.47024920	     -2.97599707	     -0.65193593	      0.14471428	      0.67953219	     -0.03257043	     95.34084938	    -12.98811741	     -3.29052286	    104.61033321	      1.82579475	     38.94584195	      1.60748570	     -7.49999987	    100.96398136	    -14.84062347	      4.94403978	    105.63683877	      1.84371065	     34.10800963	      7.55653181	     -7.49999987	    -34.73148400	      0.50778279	      1.12718477	     84.39407032	    -12.25380143	     21.96470976	    103.61716191	     96.47573700	     93.25883336	     -3.77390695	     33.73193552	     95.60688508	     89.06183113
      2.47916670	    -31.10991511	     -2.91611368	     -0.60005988	      0.14497061	      0.68548574	     -0.03319270	     94.30683970	    -12.79973494	     -3.31709244	    103.56281368	      1.80751208	     38.55010390	      1.07308256	     -7.49999987	     99.66986959	    -14.58304606	      4.66929837	    104.58586074	      1.82536762	     34.05161614	      6.97408310	     -7.49999987	    -35.18206181	      0.48541120	      0.96445043	     83.62319696	    -12.23233149	     21.87610880	    102.18713754	     95.36195349	     92.65901723	     -3.85098728	     33.25311268	     94.16258440	     87.81205499
      2.48333330	    -30.71770080	     -2.80466846	     -0.61575924	      0.14514523	      0.68994279	     -0.03427440	     93.39463885	    -12.65327922	     -3.22557074	    102.72303534	      1.79285518	     38.14019291	      0.59004334	     -7.49999987	     98.46859388	    -14.38138890	      4.40904690	    103.76136150	      1.81097739	     34.16420300	      6.83411165	     -7.49999987	    -35.59332255	      0.40773776	      0.90340273	     82.82444795	    -12.40727757	     21.99571873	    101.50056546	     95.02723977	     91.82028728	     -3.87949910	     32.41664135	     92.94109155	     87.03963123
      2.48750000	    -30.33804530	     -2.71678640	     -0.65497943	      0.14694200	      0.69598487	     -0.03510374	     92.45455456	    -12.50217754	     -3.15805669	    101.89718668	      1.77844141	     37.82509662	      0.31373158	     -7.49999987	     97.28698298	    -14.18005579	      4.15235529	    102.92394305	      1.79636169	     34.16667878	      6.36067259	     -7.49999987	    -35.81326310	      0.36194114	      0.85680337	     81.75126663	    -12.84689062	     22.34988430	    101.27612902	     99.28882991	     90.65889523	     -3.94083752	     31.71749988	     91.82015740	     87.44999145
      2.49166670	    -29.91803187	     -2.56469664	     -0.68476422	      0.14484332	      0.69932477	     -0.03345618	     91.63277268	    -12.33285291	     -3.00362810	    101.22490912	      1.76670795	     37.60971486	     -0.03174302	     -7.49999987	     96.24495813	    -14.02675107	      3.95000064	    102.22151306	      1.78410197	     34.28285079	      6.11183420	     -7.49999987	    -35.90867409	      0.21323280	      0.48120779	     80.93824127	    -12.94208032	     23.54482216	    100.45307422	     97.79023349	     89.73497255	     -4.83340145	     31.42634008	     90.81877384	     85.72013933
      2.49583330	    -29.53163764	     -2.41977726	     -0.69767241	      0.14719305	      0.70543997	     -0.03483725	     90.69611599	    -12.18878858	     -2.84596169	    100.41469115	      1.75256698	     37.54970258	      0.13170928	     -7.49999987	     95.20221022	    -13.86747129	      3.75021687	    101.56347887	      1.77261711	     34.17826869	      5.85007468	     -7.49999987	    -35.84701979	      0.16753398	      0.17064244	     79.56789029	    -13.08448166	     24.55240294	     99.79159500	     96.71605820	     88.60420787	     -5.57421651	     31.59727315	     89.75854618	     84.54364976
